<svg xmlns="http://www.w3.org/2000/svg" width="20" height="21" fill="none"><g fill="#000" opacity=".3"><path d="M7.8 12.9c.3 0 .5-.2.5-.5s-.3-.5-.6-.5-.5.2-.5.5.3.5.5.5Z"/><path d="M17 4.9h-2v-2h-1v2H6v-2H5v2H3c-.6 0-1 .4-1 1v11c0 .5.4 1 1 1h14c.5 0 1-.5 1-1v-11c0-.6-.5-1-1-1Zm0 12H3v-7h14v7Zm-14-8v-3h2v2h1v-2h8v2h1v-2h2v3H3Z"/><path d="M10 12.9c.3 0 .5-.2.5-.5s-.2-.5-.5-.5-.5.2-.5.5.2.5.5.5ZM12.3 12.9c.3 0 .4-.2.4-.5s-.1-.5-.4-.5c-.4 0-.6.2-.6.5s.3.5.6.5ZM7.8 13.9c-.3 0-.5.2-.5.5s.2.5.5.5.5-.2.5-.5-.3-.5-.6-.5ZM5.5 12.9c.3 0 .5-.2.5-.5s-.2-.5-.5-.5-.5.2-.5.5.2.5.5.5ZM5.5 13.9c-.3 0-.5.2-.5.5s.2.5.5.5.5-.2.5-.5-.2-.5-.5-.5ZM10 13.9c-.3 0-.5.2-.5.5s.2.5.5.5.5-.2.5-.5-.2-.5-.5-.5ZM12.3 13.9c-.4 0-.6.2-.6.5s.3.5.6.5.4-.2.4-.5-.1-.5-.4-.5ZM14.5 12.9c.3 0 .5-.2.5-.5s-.2-.5-.5-.5-.5.2-.5.5.2.5.5.5ZM14.5 13.9c-.3 0-.5.2-.5.5s.2.5.5.5.5-.2.5-.5-.2-.5-.5-.5Z"/></g></svg>